<?xml version="1.0" encoding="utf-8"?>
<!-- Generator: Adobe Illustrator 25.4.1, SVG Export Plug-In . SVG Version: 6.00 Build 0)  -->
<svg version="1.1" id="Camada_1" xmlns="http://www.w3.org/2000/svg" xmlns:xlink="http://www.w3.org/1999/xlink" x="0px" y="0px"
	 viewBox="0 0 100 100" style="enable-background:new 0 0 100 100;" xml:space="preserve">
<style type="text/css">
	.st0{fill:url(#SVGID_1_);}
	.st1{fill:#F6F4F3;}
	.st2{fill:#4469B0;}
	.st3{fill:none;stroke:#F6F4F3;stroke-width:5.5;stroke-miterlimit:10;}
</style>
<image style="display:none;overflow:visible;" width="512" height="512" xlink:href="../../Downloads/1006771.png"  transform="matrix(0.1953 0 0 0.1953 0 0)">
</image>
<g>
	<path class="st1" d="M50,5.5c24.5,0,44.5,20,44.5,44.5S74.5,94.5,50,94.5S5.5,74.5,5.5,50S25.5,5.5,50,5.5 M50,0
		C22.4,0,0,22.4,0,50s22.4,50,50,50s50-22.4,50-50S77.6,0,50,0L50,0z"/>
</g>
<g>
	<path class="st1" d="M50,5.5c5.2,0,10.6,4.3,14.8,11.8c4.8,8.6,7.4,20.2,7.4,32.7s-2.6,24-7.4,32.7c-4.2,7.5-9.6,11.8-14.8,11.8
		s-10.6-4.3-14.8-11.8C30.4,74,27.8,62.4,27.8,50s2.6-24,7.4-32.7C39.4,9.8,44.8,5.5,50,5.5 M50,0C34.7,0,22.3,22.4,22.3,50
		s12.4,50,27.7,50s27.7-22.4,27.7-50S65.3,0,50,0L50,0z"/>
</g>
<line class="st3" x1="50" y1="100" x2="50" y2="0"/>
<line class="st3" x1="0" y1="50" x2="100" y2="50"/>
<path class="st3" d="M8.2,76.4c0,0,41.8-13.5,83.7,0"/>
<path class="st3" d="M91.8,23.6c0,0-41.8,13.5-83.7,0"/>
</svg>
