<?xml version="1.0" encoding="utf-8"?>
<!-- Generator: Adobe Illustrator 25.4.1, SVG Export Plug-In . SVG Version: 6.00 Build 0)  -->
<svg version="1.1" id="Camada_1" xmlns="http://www.w3.org/2000/svg" xmlns:xlink="http://www.w3.org/1999/xlink" x="0px" y="0px"
	 viewBox="0 0 100 100" style="enable-background:new 0 0 100 100;" xml:space="preserve">
<style type="text/css">
	.st0{fill:url(#SVGID_1_);}
	.st1{fill:#F6F4F3;}
	.st2{fill:#4469B0;}
	.st3{fill:none;stroke:#F6F4F3;stroke-width:5.5;stroke-miterlimit:10;}
</style>
<path id="XMLID_13_" class="st1" d="M73.6-0.3H26.4C11.9-0.3,0,11.9,0,26.7v46.2c0,14.8,11.9,26.9,26.4,26.9h47.3
	c14.5,0,26.4-12.1,26.4-26.9V26.7C100,11.9,88.1-0.3,73.6-0.3z M91,72.2c0,10.3-8.2,18.6-18.2,18.6H27.2C17.2,90.8,9,82.4,9,72.2
	V27.3C9,17.1,17.2,8.7,27.2,8.7l45.6,0c10,0,18.2,8.4,18.2,18.6V72.2z"/>
<path id="XMLID_10_" class="st1" d="M50,24.1c-13.9,0-25.1,11.5-25.1,25.7c0,14.2,11.3,25.7,25.1,25.7s25.1-11.5,25.1-25.7
	S63.9,24.1,50,24.1z M50,66.3c-9,0-16.2-7.4-16.2-16.6c0-9.1,7.3-16.6,16.2-16.6c9,0,16.2,7.4,16.2,16.6C66.2,58.9,59,66.3,50,66.3z
	"/>
<ellipse id="XMLID_8_" class="st1" cx="76.5" cy="22.7" rx="5.7" ry="5.8"/>
</svg>
