<?xml version="1.0" encoding="utf-8"?>
<!-- Generator: Adobe Illustrator 25.4.8, SVG Export Plug-In . SVG Version: 6.00 Build 0)  -->
<svg version="1.1" id="Camada_1" xmlns="http://www.w3.org/2000/svg" xmlns:xlink="http://www.w3.org/1999/xlink" x="0px" y="0px"
	 viewBox="0 0 15 9.8" style="enable-background:new 0 0 15 9.8;" xml:space="preserve">
<style type="text/css">
	.st0{fill:#3082AF;}
</style>
<path class="st0" d="M13.9,5.5C10.5,2.4,6.7,3.3,4.8,4L4,2.6c-0.2-0.3-0.7-0.3-0.9,0L0.9,6.5C0.7,6.8,0.9,7.3,1.3,7.3l4.5,0
	c0.4,0,0.6-0.4,0.4-0.8L5.5,5.2c1.6-0.6,4.7-1.3,7.6,1.3c0.1,0.1,0.3,0.2,0.4,0.2c0.2,0,0.4-0.1,0.5-0.2C14.2,6.2,14.2,5.7,13.9,5.5
	z"/>
</svg>
