<?xml version="1.0" encoding="utf-8"?>
<!-- Generator: Adobe Illustrator 25.4.8, SVG Export Plug-In . SVG Version: 6.00 Build 0)  -->
<svg version="1.1" id="Camada_1" xmlns="http://www.w3.org/2000/svg" xmlns:xlink="http://www.w3.org/1999/xlink" x="0px" y="0px"
	 viewBox="0 0 30 30" style="enable-background:new 0 0 30 30;" xml:space="preserve">
<style type="text/css">
	.st0{fill:#F6F4F2;}
</style>
<g>
	<g>
		<path class="st0" d="M19.2,0.5H7.6c-2.3,0-4.2,1.9-4.2,4.2v20.6c0,2.3,1.9,4.2,4.2,4.2h14.9c2.3,0,4.2-1.9,4.2-4.2V7.9L19.2,0.5z
			 M19.8,3.6l3.7,3.7h-3.7V3.6z M22.4,27.7H7.6c-1.3,0-2.4-1.1-2.4-2.4V4.7c0-1.3,1.1-2.4,2.4-2.4H18v6.9h6.9v16.1
			C24.8,26.6,23.7,27.7,22.4,27.7z"/>
	</g>
	<g>
		<rect x="7.7" y="12.4" class="st0" width="14.6" height="1.8"/>
	</g>
	<g>
		<rect x="7.7" y="16.8" class="st0" width="14.6" height="1.8"/>
	</g>
	<g>
		<rect x="7.7" y="21.3" class="st0" width="14.6" height="1.8"/>
	</g>
</g>
</svg>
