<?xml version="1.0" encoding="utf-8"?>
<!-- Generator: Adobe Illustrator 25.4.1, SVG Export Plug-In . SVG Version: 6.00 Build 0)  -->
<svg version="1.1" id="Camada_1" xmlns="http://www.w3.org/2000/svg" xmlns:xlink="http://www.w3.org/1999/xlink" x="0px" y="0px"
	 viewBox="0 0 16 16" style="enable-background:new 0 0 16 16;" xml:space="preserve">
<style type="text/css">
	.st0{fill:#941724;}
	.st1{opacity:0.5;fill:url(#SVGID_1_);}
	.st2{fill:#E8E3E0;}
	.st3{fill:#0A375C;}
	.st4{opacity:0.8;fill:url(#SVGID_00000164475328783451251080000010587588598083934371_);}
	.st5{fill:#CC1C2E;}
</style>
<g>
	<g>
		<polygon class="st0" points="0,10.1 3.8,12.6 3.2,9.1 		"/>
		<linearGradient id="SVGID_1_" gradientUnits="userSpaceOnUse" x1="1.8822" y1="9.1464" x2="1.8822" y2="10.4749">
			<stop  offset="0" style="stop-color:#000000"/>
			<stop  offset="0.1486" style="stop-color:#2D2D2D"/>
			<stop  offset="0.463" style="stop-color:#868686"/>
			<stop  offset="0.7193" style="stop-color:#C7C7C7"/>
			<stop  offset="0.9045" style="stop-color:#F0F0F0"/>
			<stop  offset="1" style="stop-color:#FFFFFF"/>
		</linearGradient>
		<polygon class="st1" points="0,10.1 3.8,12.6 3.2,9.1 		"/>
	</g>
	<path class="st2" d="M14.7,7.3L13.9,12l-12,0.8C2,12.3,2.5,8.6,2.5,8.5c0.3,0,8.5-0.6,8.6-0.6l0.2,0L14.7,7.3z"/>
	<polygon class="st3" points="3.1,11.7 3.6,8.8 13.7,8.1 13.2,11.1 	"/>
	
		<linearGradient id="SVGID_00000038390131228175509580000013440642398920775049_" gradientUnits="userSpaceOnUse" x1="8.1592" y1="7.9627" x2="8.4834" y2="9.2174" gradientTransform="matrix(1 -4.000000e-04 4.000000e-04 1 -0.3436 0.2815)">
		<stop  offset="0" style="stop-color:#5E5353"/>
		<stop  offset="8.585882e-02" style="stop-color:#796F6F"/>
		<stop  offset="0.2363" style="stop-color:#A19B9B"/>
		<stop  offset="0.3887" style="stop-color:#C3BFBF"/>
		<stop  offset="0.5412" style="stop-color:#DDDBDB"/>
		<stop  offset="0.6937" style="stop-color:#F0EFEF"/>
		<stop  offset="0.8464" style="stop-color:#FBFBFB"/>
		<stop  offset="1" style="stop-color:#FFFFFF"/>
	</linearGradient>
	<path style="opacity:0.8;fill:url(#SVGID_00000038390131228175509580000013440642398920775049_);" d="M14,11.8l-12,0.9
		c0-0.1,0.6-4.5,0.6-4.6c0.4,0,12-0.9,12.1-0.9L14,11.8z"/>
	<polygon class="st5" points="0.1,5.5 0,10.1 16,7.2 15.9,2.7 	"/>
</g>
<g>
	<polygon class="st2" points="2.3,8.8 2.4,5.9 14,3.9 14,6.7 	"/>
</g>
</svg>
