<?xml version="1.0" encoding="utf-8"?>
<!-- Generator: Adobe Illustrator 25.4.1, SVG Export Plug-In . SVG Version: 6.00 Build 0)  -->
<svg version="1.1" id="Camada_1" xmlns="http://www.w3.org/2000/svg" xmlns:xlink="http://www.w3.org/1999/xlink" x="0px" y="0px"
	 viewBox="0 0 24 24" style="enable-background:new 0 0 24 24;" xml:space="preserve">
<style type="text/css">
	.st0{fill:#E8E3E0;}
</style>
<g>
	<path class="st0" d="M14.2,15.6c0,0.1-0.1,0.1-0.1,0.1c-0.4,0.5-0.8,0.9-1.3,1.4c-0.7,0.7-1.5,1.4-2.2,2.2c-0.7,0.6-1.5,0.9-2.4,1
		c-2.1,0.2-3.8-1.3-4.3-2.7c-0.5-1.4-0.4-2.8,0.5-4c0.2-0.3,0.5-0.6,0.8-0.8C6.2,11.9,7.1,11,8,10.1c0.6-0.6,1.4-0.9,2.3-1
		C11,9,11.8,9.2,12.6,9.6c0.4,0.2,0.8,0.5,1.1,0.9c0.2,0.3,0.3,0.7,0.1,1.1c-0.2,0.4-0.6,0.5-1,0.5c-0.2,0-0.4-0.2-0.5-0.3
		c-0.2-0.2-0.4-0.3-0.6-0.4c-0.7-0.3-1.3-0.3-2,0.1c-0.2,0.1-0.3,0.2-0.4,0.3c-1,1-2,2-3,3c-0.6,0.6-0.8,1.7-0.2,2.5
		c0.3,0.4,0.6,0.8,1.1,1c0.3,0.1,0.6,0.2,0.9,0.2c0.3,0,0.7-0.1,1-0.2C9,18.1,9.1,18,9.2,17.9c0.8-0.8,1.6-1.5,2.3-2.3
		c0.1-0.1,0.1-0.1,0.2-0.2c0,0,0.1-0.1,0.1,0c0.5,0.1,1,0.2,1.5,0.2c0.2,0,0.5,0,0.7,0C14.1,15.6,14.2,15.6,14.2,15.6z"/>
	<path class="st0" d="M9.8,8.4C9.8,8.3,9.9,8.2,10,8.1C10.5,7.6,11,7,11.6,6.4c0.6-0.6,1.2-1.2,1.8-1.8c0.5-0.5,1.2-0.8,1.9-1
		c1.6-0.3,3,0.3,4.1,1.5c0.5,0.5,0.8,1.2,0.9,1.9c0.1,0.4,0.1,0.7,0.1,1.1c0,0.7-0.3,1.4-0.7,2c-0.1,0.2-0.3,0.3-0.4,0.5
		c-1,1.1-2.1,2.2-3.2,3.2c-0.5,0.5-1.2,0.8-1.9,0.9c-1.4,0.3-2.6-0.1-3.6-1c-0.2-0.2-0.3-0.4-0.4-0.6c-0.1-0.4,0.1-0.7,0.4-0.9
		c0.3-0.2,0.6-0.2,1-0.1c0.1,0.1,0.3,0.2,0.4,0.3c0.7,0.6,1.5,0.7,2.4,0.2c0.1-0.1,0.3-0.2,0.4-0.3c1.1-1,2.1-2.1,3.1-3.1
		c0.3-0.3,0.4-0.6,0.5-1c0-0.4,0-0.7-0.1-1.1c-0.1-0.1-0.1-0.3-0.2-0.4c-0.4-0.5-0.8-0.9-1.5-1.1c-0.7-0.2-1.4,0-1.9,0.5
		c-0.8,0.8-1.6,1.5-2.3,2.3c-0.1,0.1-0.1,0.1-0.2,0.1c-0.5-0.1-1-0.2-1.5-0.2c-0.2,0-0.5,0-0.7,0.1C9.9,8.4,9.8,8.4,9.8,8.4
		C9.8,8.4,9.8,8.4,9.8,8.4z"/>
</g>
</svg>
